REM MD5 333df30001b0796ad9d32bfec1d3996d
FILE "Riot (Europe) (Demo).bin" BINARY
  TRACK 01 MODE2/2352
    INDEX 01 00:00:00
  TRACK 02 AUDIO
    INDEX 00 17:53:48
    INDEX 01 17:55:48
  TRACK 03 AUDIO
    INDEX 00 20:56:11
    INDEX 01 20:58:11
  TRACK 04 AUDIO
    INDEX 00 22:19:68
    INDEX 01 22:21:68
  TRACK 05 AUDIO
    INDEX 00 24:36:71
    INDEX 01 24:38:71
  TRACK 06 AUDIO
    INDEX 00 27:17:35
    INDEX 01 27:19:35
REM LEADOUT 30:29:52
